<svg width="19" height="18" viewBox="0 0 19 18" fill="none" xmlns="http://www.w3.org/2000/svg">
<path d="M9.4375 0.5625V3.375H3.8125V9H1C1 13.6687 4.76875 17.4375 9.4375 17.4375C14.1062 17.4375 17.875 13.6687 17.875 9C17.875 4.33125 14.1062 0.5625 9.4375 0.5625Z" fill="#2A5F9E"/>
<path d="M9.4375 0.5625C8.11562 0.5625 6.87812 0.871875 5.75312 1.40625V3.09375H3.53125V5.31562H1.84375C1.30938 6.44062 1 7.67812 1 9H4.375V4.78125L7.75 9H9.4375V6.89062L7.075 3.9375H9.4375V0.5625Z" fill="white"/>
<path d="M4.7688 3.9375L8.87505 9H9.43755V7.62188L6.4563 3.9375H4.7688Z" fill="#ED4C5C"/>
<path d="M9.4375 1.40625H5.75312C4.06562 2.22188 2.65938 3.62812 1.84375 5.31562V9H3.53125V3.09375H9.4375V1.40625Z" fill="#ED4C5C"/>
<path d="M2.6875 10.0406L3.30625 9.28125L3.10938 10.2656L4.09375 10.2937L3.22187 10.7438L3.8125 11.5312L2.94062 11.1375L2.6875 12.0938L2.43437 11.1375L1.5625 11.5312L2.15312 10.7438L1.28125 10.2937L2.26562 10.2656L2.06875 9.28125L2.6875 10.0406ZM15.0625 5.68125L15.5687 5.0625L15.4 5.85L16.1875 5.87812L15.4844 6.24375L15.9625 6.8625L15.2594 6.525L15.0625 7.3125L14.8656 6.525L14.1625 6.8625L14.6406 6.24375L13.9375 5.87812L14.725 5.85L14.5563 5.0625L15.0625 5.68125ZM15.0625 11.3063L15.5687 10.6875L15.4 11.475L16.1875 11.5031L15.4844 11.8688L15.9625 12.4875L15.2594 12.15L15.0625 12.9375L14.8656 12.15L14.1625 12.4875L14.6406 11.8688L13.9375 11.5031L14.725 11.475L14.5563 10.6875L15.0625 11.3063ZM12.25 7.36875L12.7562 6.75L12.5875 7.5375L13.375 7.56562L12.6719 7.93125L13.15 8.55L12.4469 8.2125L12.25 9L12.0531 8.2125L11.35 8.55L11.8281 7.93125L11.125 7.56562L11.9125 7.5375L11.7438 6.75L12.25 7.36875Z" fill="white"/>
</svg>
