<svg width="18" height="18" viewBox="0 0 18 18" fill="none" xmlns="http://www.w3.org/2000/svg">
<path d="M9 16.1875C8.00572 16.1875 7.07134 15.9988 6.19688 15.6215C5.32241 15.2441 4.56172 14.732 3.91484 14.0852C3.26797 13.4383 2.75586 12.6776 2.37852 11.8031C2.00117 10.9287 1.8125 9.99428 1.8125 9C1.8125 8.00572 2.00117 7.07134 2.37852 6.19688C2.75586 5.32241 3.26797 4.56172 3.91484 3.91484C4.56172 3.26797 5.32241 2.75586 6.19688 2.37852C7.07134 2.00117 8.00572 1.8125 9 1.8125C9.99428 1.8125 10.9287 2.00117 11.8031 2.37852C12.6776 2.75586 13.4383 3.26797 14.0852 3.91484C14.732 4.56172 15.2441 5.32241 15.6215 6.19688C15.9988 7.07134 16.1875 8.00572 16.1875 9C16.1875 9.99428 15.9988 10.9287 15.6215 11.8031C15.2441 12.6776 14.732 13.4383 14.0852 14.0852C13.4383 14.732 12.6776 15.2441 11.8031 15.6215C10.9287 15.9988 9.99428 16.1875 9 16.1875ZM9 15.1094C9.73086 15.1094 10.4347 14.9866 11.1115 14.741C11.7882 14.4955 12.3961 14.1391 12.9352 13.6719L4.32813 5.06484C3.87292 5.61587 3.51953 6.22785 3.26797 6.90071C3.01641 7.57357 2.89063 8.27334 2.89063 9C2.89063 10.7055 3.48245 12.1501 4.66612 13.3339C5.8499 14.5176 7.29451 15.1094 9 15.1094ZM13.6539 12.9352C14.0971 12.3961 14.4505 11.7882 14.7141 11.1115C14.9776 10.4347 15.1094 9.73086 15.1094 9C15.1094 7.29441 14.5176 5.84979 13.3339 4.66612C12.1502 3.48245 10.7056 2.89063 9 2.89063C8.27334 2.89063 7.57357 3.01641 6.90071 3.26797C6.22785 3.51953 5.61587 3.87891 5.06484 4.34609L13.6539 12.9352Z" fill="#D32F2F"/>
</svg>
