<svg width="18" height="18" viewBox="0 0 18 18" fill="none" xmlns="http://www.w3.org/2000/svg">
<path d="M7.93984 10.6352L6.17891 8.87422C6.07109 8.76641 5.93931 8.7125 5.78359 8.7125C5.62788 8.7125 5.49009 8.77241 5.37031 8.89219C5.2625 9 5.20859 9.13178 5.20859 9.2875C5.20859 9.44322 5.2625 9.575 5.37031 9.68281L7.5625 11.893C7.67031 12.0008 7.79609 12.0547 7.93984 12.0547C8.08359 12.0547 8.20937 12.0008 8.31719 11.893L12.6117 7.59844C12.7315 7.47866 12.7914 7.34087 12.7914 7.18516C12.7914 7.02944 12.7315 6.89165 12.6117 6.77187C12.4919 6.66406 12.3512 6.61314 12.1895 6.61914C12.0277 6.62514 11.893 6.68203 11.7852 6.78984L7.93984 10.6352ZM9 16.1875C8.01772 16.1875 7.08931 15.9988 6.21484 15.6215C5.34038 15.2441 4.5767 14.729 3.92383 14.0762C3.27096 13.4233 2.75586 12.6596 2.37852 11.7852C2.00117 10.9107 1.8125 9.98228 1.8125 9C1.8125 8.00572 2.00117 7.07134 2.37852 6.19688C2.75586 5.32241 3.27096 4.56172 3.92383 3.91484C4.5767 3.26797 5.34038 2.75586 6.21484 2.37852C7.08931 2.00117 8.01772 1.8125 9 1.8125C9.99428 1.8125 10.9287 2.00117 11.8031 2.37852C12.6776 2.75586 13.4383 3.26797 14.0852 3.91484C14.732 4.56172 15.2441 5.32241 15.6215 6.19688C15.9988 7.07134 16.1875 8.00572 16.1875 9C16.1875 9.98228 15.9988 10.9107 15.6215 11.7852C15.2441 12.6596 14.732 13.4233 14.0852 14.0762C13.4383 14.729 12.6776 15.2441 11.8031 15.6215C10.9287 15.9988 9.99428 16.1875 9 16.1875ZM9 15.1094C10.701 15.1094 12.1445 14.5134 13.3305 13.3215C14.5164 12.1295 15.1094 10.6891 15.1094 9C15.1094 7.29897 14.5164 5.85547 13.3305 4.66953C12.1445 3.48359 10.701 2.89063 9 2.89063C7.31094 2.89063 5.87045 3.48359 4.67852 4.66953C3.48659 5.85547 2.89063 7.29897 2.89063 9C2.89063 10.6891 3.48659 12.1295 4.67852 13.3215C5.87045 14.5134 7.31094 15.1094 9 15.1094Z" fill="#E8F5E9"/>
</svg>
