<svg width="22" height="22" viewBox="0 0 22 22" fill="none" xmlns="http://www.w3.org/2000/svg">
<path d="M5.74611 2.40625H16.2539C17.7167 2.40625 18.448 2.40625 18.688 2.87239C18.9278 3.33853 18.5027 3.93369 17.6525 5.124L16.6818 6.48288C16.3038 7.01213 16.1148 7.27676 15.8372 7.41963C15.5596 7.5625 15.2344 7.5625 14.5839 7.5625H7.41603C6.76563 7.5625 6.44043 7.5625 6.16281 7.41963C5.88518 7.27676 5.69616 7.01213 5.31812 6.48288L4.3475 5.12401C3.49728 3.93369 3.07216 3.33853 3.31205 2.87239C3.55193 2.40625 4.28332 2.40625 5.74611 2.40625Z" stroke="#696969" stroke-width="1.3"/>
<path d="M5.74611 19.5938H16.2539C17.7167 19.5938 18.448 19.5938 18.688 19.1276C18.9278 18.6615 18.5027 18.0663 17.6525 16.876L16.6818 15.5171C16.3038 14.9878 16.1148 14.7232 15.8372 14.5803C15.5596 14.4375 15.2344 14.4375 14.5839 14.4375H7.41604C6.76563 14.4375 6.44043 14.4375 6.16281 14.5803C5.88518 14.7232 5.69616 14.9878 5.31813 15.5171L4.3475 16.876C3.49728 18.0663 3.07216 18.6615 3.31205 19.1276C3.55193 19.5938 4.28332 19.5938 5.74611 19.5938Z" stroke="#696969" stroke-width="1.3"/>
<path d="M9.28125 11H12.7188" stroke="#696969" stroke-width="1.3" stroke-linecap="round"/>
<path d="M16.1562 11H19.5938" stroke="#696969" stroke-width="1.3" stroke-linecap="round"/>
<path d="M2.40625 11H5.84375" stroke="#696969" stroke-width="1.3" stroke-linecap="round"/>
</svg>
