<svg width="22" height="22" viewBox="0 0 22 22" fill="none" xmlns="http://www.w3.org/2000/svg">
<path d="M12.7188 18.9493H9.28125V20.2383H12.7188V18.9493ZM3.05078 12.7188V9.28129H1.76172V12.7188H3.05078ZM18.9492 12.3432V12.7188H20.2383V12.3432H18.9492ZM13.4846 4.65022L16.8867 7.71209L17.749 6.75393L14.347 3.69207L13.4846 4.65022ZM20.2383 12.3432C20.2383 10.8922 20.2513 9.97352 19.8852 9.1515L18.7076 9.67592C18.9362 10.1892 18.9492 10.7783 18.9492 12.3432H20.2383ZM16.8867 7.71209C18.0498 8.75888 18.4791 9.16269 18.7076 9.67592L19.8852 9.1515C19.5191 8.32946 18.8275 7.72456 17.749 6.75393L16.8867 7.71209ZM9.30686 3.05082C10.6662 3.05082 11.1792 3.06078 11.6364 3.23622L12.0982 2.03272C11.3662 1.75181 10.5686 1.76176 9.30686 1.76176V3.05082ZM14.347 3.69207C13.4137 2.85212 12.8302 2.3136 12.0982 2.03272L11.6364 3.23622C12.0937 3.4117 12.4794 3.74551 13.4846 4.65022L14.347 3.69207ZM9.28125 18.9493C7.64258 18.9493 6.47841 18.9479 5.59526 18.8291C4.73065 18.7129 4.23252 18.4949 3.86882 18.1312L2.95732 19.0428C3.60045 19.6858 4.41594 19.9712 5.4235 20.1068C6.4125 20.2397 7.67901 20.2383 9.28125 20.2383V18.9493ZM1.76172 12.7188C1.76172 14.321 1.76035 15.5876 1.89332 16.5765C2.02878 17.5841 2.31419 18.3996 2.95732 19.0428L3.86882 18.1312C3.50512 17.7675 3.28713 17.2694 3.17089 16.4048C3.05215 15.5216 3.05078 14.3574 3.05078 12.7188H1.76172ZM12.7188 20.2383C14.321 20.2383 15.5875 20.2397 16.5765 20.1068C17.584 19.9712 18.3996 19.6858 19.0427 19.0428L18.1312 18.1312C17.7675 18.4949 17.2693 18.7129 16.4048 18.8291C15.5216 18.9479 14.3574 18.9493 12.7188 18.9493V20.2383ZM18.9492 12.7188C18.9492 14.3574 18.9478 15.5216 18.8291 16.4048C18.7129 17.2694 18.4949 17.7675 18.1312 18.1312L19.0427 19.0428C19.6858 18.3996 19.9712 17.5841 20.1067 16.5765C20.2397 15.5876 20.2383 14.321 20.2383 12.7188H18.9492ZM3.05078 9.28129C3.05078 7.64262 3.05215 6.47845 3.17089 5.59531C3.28713 4.7307 3.50512 4.23256 3.86882 3.86886L2.95732 2.95736C2.31419 3.60049 2.02878 4.41598 1.89332 5.42354C1.76035 6.41255 1.76172 7.67906 1.76172 9.28129H3.05078ZM9.30686 1.76176C7.69603 1.76176 6.42333 1.7604 5.43028 1.89331C4.41918 2.02863 3.60095 2.31374 2.95732 2.95736L3.86882 3.86886C4.23202 3.50567 4.73169 3.28737 5.60128 3.17098C6.48893 3.05218 7.6597 3.05082 9.30686 3.05082V1.76176Z" fill="#696969"/>
<path d="M11.8594 2.83594V4.98438C11.8594 7.00994 11.8594 8.02272 12.4886 8.65199C13.1179 9.28125 14.1307 9.28125 16.1562 9.28125H19.5938" stroke="#696969" stroke-width="1.3"/>
<path d="M7.99219 16.5859V12.2891M7.99219 12.2891L6.27344 13.9004M7.99219 12.2891L9.71094 13.9004" stroke="#696969" stroke-width="1.3" stroke-linecap="round" stroke-linejoin="round"/>
</svg>
