<svg width="24" height="24" viewBox="0 0 24 24" fill="none" xmlns="http://www.w3.org/2000/svg">
<path d="M11.9966 15.7132C11.9028 15.7132 11.816 15.6973 11.7361 15.6653C11.6563 15.6333 11.5764 15.5775 11.4965 15.4976L7.87884 11.8799C7.73509 11.7318 7.66719 11.559 7.6752 11.3614C7.6832 11.164 7.75593 10.9934 7.89346 10.8497C8.04343 10.7059 8.21824 10.634 8.4179 10.634C8.61757 10.634 8.78926 10.7059 8.93301 10.8497L11.2809 13.2215V5.05176C11.2809 4.84811 11.3503 4.67737 11.4889 4.53953C11.6274 4.40185 11.799 4.33301 12.004 4.33301C12.2087 4.33301 12.379 4.40185 12.5148 4.53953C12.6505 4.67737 12.7184 4.84811 12.7184 5.05176V13.2215L15.0903 10.8497C15.2308 10.7059 15.3978 10.638 15.591 10.646C15.7843 10.654 15.9559 10.7299 16.1059 10.8736C16.2434 11.0174 16.3122 11.1891 16.3122 11.3887C16.3122 11.5884 16.2403 11.7601 16.0965 11.9038L12.5028 15.4976C12.4229 15.5775 12.342 15.6333 12.2601 15.6653C12.178 15.6973 12.0901 15.7132 11.9966 15.7132ZM5.77051 19.6663C5.38717 19.6663 5.05176 19.5226 4.76426 19.2351C4.47676 18.9476 4.33301 18.6122 4.33301 18.2288V15.5216C4.33301 15.3179 4.40233 15.1472 4.54097 15.0093C4.67945 14.8717 4.85115 14.8028 5.05607 14.8028C5.26083 14.8028 5.43111 14.8717 5.56686 15.0093C5.70261 15.1472 5.77051 15.3179 5.77051 15.5216V18.2288H18.2288V15.5216C18.2288 15.3179 18.2982 15.1472 18.4368 15.0093C18.5753 14.8717 18.747 14.8028 18.9519 14.8028C19.1567 14.8028 19.3269 14.8717 19.4627 15.0093C19.5984 15.1472 19.6663 15.3179 19.6663 15.5216V18.2288C19.6663 18.6122 19.5226 18.9476 19.2351 19.2351C18.9476 19.5226 18.6122 19.6663 18.2288 19.6663H5.77051Z" fill="black"/>
</svg>
