<svg width="18" height="18" viewBox="0 0 18 18" fill="none" xmlns="http://www.w3.org/2000/svg">
<path d="M7.41875 16.0256C5.77759 15.6422 4.43295 14.7977 3.38477 13.492C2.33659 12.1863 1.8125 10.6889 1.8125 8.9998C1.8125 7.31074 2.33659 5.81333 3.38477 4.50762C4.43295 3.20189 5.77759 2.36335 7.41875 1.99199C7.58647 1.95605 7.73619 1.99199 7.86797 2.0998C7.99975 2.20762 8.06562 2.34538 8.06562 2.51309C8.06562 2.64486 8.02969 2.75866 7.95781 2.85449C7.88594 2.95033 7.78413 3.01022 7.65234 3.03418C6.25078 3.34564 5.10678 4.0584 4.22031 5.17246C3.33385 6.28652 2.89063 7.5623 2.89063 8.9998C2.89063 10.4373 3.33385 11.7131 4.22031 12.8271C5.10678 13.9412 6.25078 14.654 7.65234 14.9654C7.78413 14.9894 7.88594 15.0493 7.95781 15.1451C8.02969 15.241 8.06562 15.3547 8.06562 15.4865C8.06562 15.6542 7.99975 15.795 7.86797 15.9088C7.73619 16.0226 7.58647 16.0615 7.41875 16.0256ZM10.5813 16.0076C10.4135 16.0555 10.2638 16.0226 10.132 15.9088C10.0002 15.795 9.93437 15.6542 9.93437 15.4865C9.93437 15.3547 9.97031 15.241 10.0422 15.1451C10.1141 15.0493 10.2099 14.9894 10.3297 14.9654C10.6771 14.8816 11.0125 14.7768 11.3359 14.651C11.6594 14.5252 11.9708 14.3605 12.2703 14.1568C12.3662 14.0969 12.474 14.076 12.5937 14.0939C12.7135 14.1119 12.8154 14.1628 12.8992 14.2467C13.031 14.3785 13.0879 14.5252 13.0699 14.6869C13.052 14.8486 12.9711 14.9774 12.8273 15.0732C12.4799 15.2889 12.1176 15.4746 11.7402 15.6303C11.3629 15.786 10.9766 15.9118 10.5813 16.0076ZM14.2469 12.917C14.151 12.8331 14.0941 12.7283 14.0762 12.6025C14.0582 12.4768 14.0852 12.366 14.157 12.2701C14.3487 11.9706 14.5104 11.6622 14.6422 11.3447C14.774 11.0273 14.8818 10.6949 14.9656 10.3475C14.9896 10.2277 15.0495 10.1318 15.1453 10.06C15.2412 9.98809 15.3549 9.95215 15.4867 9.95215C15.6544 9.95215 15.7922 10.018 15.9 10.1498C16.0078 10.2816 16.0438 10.4313 16.0078 10.599C15.912 10.9943 15.7862 11.3807 15.6305 11.758C15.4748 12.1354 15.2891 12.4977 15.0734 12.8451C14.9776 12.9889 14.8488 13.0697 14.6871 13.0877C14.5254 13.1057 14.3787 13.0488 14.2469 12.917ZM15.4867 8.06543C15.3549 8.06543 15.2381 8.02949 15.1363 7.95762C15.0345 7.88574 14.9716 7.7899 14.9477 7.67012C14.8758 7.32271 14.774 6.99029 14.6422 6.67285C14.5104 6.35542 14.3487 6.04693 14.157 5.74746C14.0852 5.63965 14.0582 5.52583 14.0762 5.40605C14.0941 5.28628 14.151 5.17846 14.2469 5.08262C14.3667 4.96284 14.5104 4.91191 14.6781 4.92988C14.8458 4.94785 14.9776 5.02871 15.0734 5.17246C15.2891 5.51987 15.4748 5.88223 15.6305 6.25957C15.7862 6.63691 15.912 7.02324 16.0078 7.41855C16.0438 7.58628 16.0078 7.73599 15.9 7.86777C15.7922 7.99956 15.6544 8.06543 15.4867 8.06543ZM12.2703 3.84277C11.9708 3.65111 11.6594 3.48939 11.3359 3.35762C11.0125 3.22585 10.6771 3.11804 10.3297 3.03418C10.2099 3.01022 10.1141 2.95033 10.0422 2.85449C9.97031 2.75866 9.93437 2.64486 9.93437 2.51309C9.93437 2.34538 10.0002 2.20762 10.132 2.0998C10.2638 1.99199 10.4135 1.95605 10.5813 1.99199C10.9766 2.08783 11.3629 2.21061 11.7402 2.36035C12.1176 2.51009 12.4799 2.69876 12.8273 2.92637C12.9711 3.0222 13.052 3.15397 13.0699 3.32168C13.0879 3.48939 13.037 3.63314 12.9172 3.75293C12.8213 3.84876 12.7135 3.90566 12.5937 3.92363C12.474 3.9416 12.3662 3.91465 12.2703 3.84277ZM9.53906 10.5092L11.4437 8.60449C11.5516 8.49668 11.6773 8.44576 11.8211 8.45176C11.9648 8.45776 12.0906 8.51465 12.1984 8.62246C12.3062 8.73027 12.3602 8.85904 12.3602 9.00879C12.3602 9.15854 12.3062 9.2873 12.1984 9.39512L9.37734 12.2162C9.26953 12.324 9.14375 12.3779 9 12.3779C8.85625 12.3779 8.73047 12.324 8.62266 12.2162L5.78359 9.37715C5.67578 9.26934 5.62486 9.14057 5.63086 8.99082C5.63686 8.84107 5.69375 8.71231 5.80156 8.60449C5.90938 8.49668 6.03814 8.44277 6.18789 8.44277C6.33764 8.44277 6.46641 8.49668 6.57422 8.60449L8.46094 10.5092V5.94512C8.46094 5.7894 8.51186 5.6606 8.61367 5.55879C8.71548 5.45698 8.84428 5.40605 9 5.40605C9.15572 5.40605 9.28452 5.45698 9.38633 5.55879C9.48814 5.6606 9.53906 5.7894 9.53906 5.94512V10.5092Z" fill="white"/>
</svg>
