<svg width="83" height="92" viewBox="0 0 83 92" fill="none" xmlns="http://www.w3.org/2000/svg">
<g opacity="0.42">
<path d="M36.6609 77.3008C55.8396 77.3008 71.4113 80.2023 71.4113 83.7759C71.4113 87.3495 55.8396 90.251 36.6609 90.251C17.4821 90.251 1.9104 87.3495 1.9104 83.7759C1.9104 80.2023 17.4821 77.3008 36.6609 77.3008Z" fill="#D1D5D5"/>
<path d="M36.6609 77.3008C55.8396 77.3008 71.4113 80.2023 71.4113 83.7759C71.4113 87.3495 55.8396 90.251 36.6609 90.251C17.4821 90.251 1.9104 87.3495 1.9104 83.7759C1.9104 80.2023 17.4821 77.3008 36.6609 77.3008Z" stroke="#0E0E0E" stroke-width="2"/>
</g>
<path d="M81.0693 79.5481L70.2268 81.4037L61.0751 23.0099L71.9175 21.1543L81.0693 79.5481Z" fill="#3E3EAE"/>
<path d="M81.0693 79.5481L70.2268 81.4037L61.0751 23.0099L71.9175 21.1543L81.0693 79.5481Z" stroke="#0E0E0E" stroke-width="2"/>
<path d="M63.3251 41.3125V81.0545H10.0811V41.3125H63.3251Z" fill="#3E3EAE"/>
<path d="M63.3251 41.3125V81.0545H10.0811V41.3125H63.3251Z" stroke="#0E0E0E" stroke-width="2"/>
<path d="M63.231 41.6743V80.6264H58.675V41.6743H63.231Z" fill="#25259C"/>
<path d="M63.231 41.6743V80.6264H58.675V41.6743H63.231Z" stroke="#0E0E0E" stroke-width="2"/>
<path d="M80.4231 75.8564L79.2545 64.5657L58.7671 65.4333L62.0744 71.4789L60.82 77.1739L80.4231 75.8564Z" fill="#25259C"/>
<path d="M80.4231 75.8564L79.2545 64.5657L58.7671 65.4333L62.0744 71.4789L60.8199 77.1739L80.4231 75.8564Z" stroke="#001F1B" stroke-width="2"/>
<path d="M80.9866 74.7177L78.6066 63.4775L60.4968 66.4101L64.1551 72.159L63.7164 78.0139L80.9866 74.7177Z" fill="#0E0E0E"/>
<path d="M80.9866 74.7177L78.6066 63.4775L60.4968 66.4101L64.1551 72.159L63.7164 78.0139L80.9866 74.7177Z" stroke="#001F1B" stroke-width="2"/>
<path d="M44.6802 56.4227V56.7091C44.6802 58.2898 43.3968 59.5732 41.8161 59.5732H24.6314C23.0507 59.5732 21.7673 58.2898 21.7673 56.7091V56.4227C21.7673 54.842 23.0507 53.5586 24.6314 53.5586H41.8161C43.3968 53.5586 44.6802 54.842 44.6802 56.4227Z" fill="#25259C"/>
<path d="M44.6802 56.4227V56.7091C44.6802 58.2898 43.3968 59.5732 41.8161 59.5732H24.6314C23.0507 59.5732 21.7673 58.2898 21.7673 56.7091V56.4227C21.7673 54.842 23.0507 53.5586 24.6314 53.5586H41.8161C43.3968 53.5586 44.6802 54.842 44.6802 56.4227Z" stroke="#001F1B" stroke-width="2"/>
<path d="M41.9594 55.994C41.9594 57.0215 41.1252 57.8557 40.0977 57.8557H24.7747C23.7472 57.8557 22.913 57.0215 22.913 55.994C22.913 54.9665 23.7472 54.1323 24.7747 54.1323H40.0977C41.1252 54.1323 41.9594 54.9665 41.9594 55.994Z" fill="#FBFEFE"/>
<path d="M41.9594 55.994C41.9594 57.0215 41.1252 57.8557 40.0977 57.8557H24.7747C23.7472 57.8557 22.913 57.0215 22.913 55.994C22.913 54.9665 23.7472 54.1323 24.7747 54.1323H40.0977C41.1252 54.1323 41.9594 54.9665 41.9594 55.994Z" stroke="#F9FAFA" stroke-width="2"/>
<path d="M45.0386 42.3887V43.8207H40.0264V42.3887H45.0386Z" fill="#25259C"/>
<path d="M45.0386 42.3887V43.8207H40.0264V42.3887H45.0386Z" stroke="#25259C" stroke-width="2"/>
<path d="M22.9133 42.8184V44.2504H17.9011V42.8184H22.9133Z" fill="#25259C"/>
<path d="M22.9133 42.8184V44.2504H17.9011V42.8184H22.9133Z" stroke="#25259C" stroke-width="2"/>
<path d="M27.9471 2.0002L35.9832 24.0683L27.3712 27.2044L19.3351 5.13623L27.9471 2.0002Z" fill="#FBFEFE"/>
<path d="M27.9471 2.0002L35.9832 24.0683L27.3712 27.2044L19.3351 5.13623L27.9471 2.0002Z" stroke="#0E0E0E" stroke-width="2"/>
<path d="M37.1838 28.204L39.3398 34.1247L31.2661 37.0648L29.1101 31.144L37.1838 28.204Z" fill="#FBFEFE"/>
<path d="M37.1838 28.204L39.3398 34.1247L31.2661 37.0648L29.1101 31.144L37.1838 28.204Z" stroke="#0E0E0E" stroke-width="2"/>
</svg>
