<svg width="20" height="20" viewBox="0 0 20 20" fill="none" xmlns="http://www.w3.org/2000/svg">
<path fill-rule="evenodd" clip-rule="evenodd" d="M2.09933 6.51928C1.66667 7.30973 1.66667 8.26323 1.66667 10.1702V11.4378C1.66667 14.6885 1.66667 16.3139 2.64297 17.3237C3.61929 18.3337 5.19063 18.3337 8.33333 18.3337H11.6667C14.8093 18.3337 16.3807 18.3337 17.357 17.3237C18.3333 16.3139 18.3333 14.6885 18.3333 11.4378V10.1702C18.3333 8.26323 18.3333 7.30973 17.9007 6.51928C17.468 5.72883 16.6776 5.23825 15.0967 4.25709L13.43 3.22272C11.7588 2.18557 10.9232 1.66699 10 1.66699C9.07675 1.66699 8.24116 2.18557 6.57002 3.22272L4.90336 4.2571C3.32246 5.23825 2.532 5.72883 2.09933 6.51928ZM7.5 14.3753C7.15482 14.3753 6.875 14.6552 6.875 15.0003C6.875 15.3455 7.15482 15.6253 7.5 15.6253H12.5C12.8452 15.6253 13.125 15.3455 13.125 15.0003C13.125 14.6552 12.8452 14.3753 12.5 14.3753H7.5Z" fill="#696969"/>
</svg>
