<svg width="171" height="40" viewBox="0 0 171 40" fill="none" xmlns="http://www.w3.org/2000/svg">
<g clip-path="url(#clip0_153_3115)">
<rect y="40" width="13.3333" height="13.25" transform="rotate(-90 0 40)" fill="#3333C1"/>
<rect x="15.75" y="37.5" width="8.33333" height="8.25" transform="rotate(-90 15.75 37.5)" fill="#3333C1" stroke="#3333C1" stroke-width="5"/>
<rect x="29" y="24.1665" width="8.33333" height="8.25" transform="rotate(-90 29 24.1665)" fill="#3333C1" stroke="#3333C1" stroke-width="5"/>
<rect x="39.75" y="40" width="13.3333" height="13.25" transform="rotate(-90 39.75 40)" fill="#7AAD1A"/>
<rect x="2.5" y="24.1665" width="8.33333" height="8.25" transform="rotate(-90 2.5 24.1665)" fill="#3333C1" stroke="#3333C1" stroke-width="5"/>
<rect x="15.75" y="10.8335" width="8.33333" height="8.25" transform="rotate(-90 15.75 10.8335)" fill="#3333C1" stroke="#3333C1" stroke-width="5"/>
<rect x="29" y="10.8335" width="8.33333" height="8.25" transform="rotate(-90 29 10.8335)" fill="#3333C1" stroke="#3333C1" stroke-width="5"/>
</g>
<path d="M66.896 12.42C67.7173 12.42 68.458 12.5007 69.118 12.662C69.7927 12.8087 70.4087 13.0213 70.966 13.3L70.35 15.368C69.7487 15.0747 69.1767 14.8547 68.634 14.708C68.0913 14.5613 67.556 14.488 67.028 14.488C66.28 14.488 65.6933 14.642 65.268 14.95C64.8573 15.258 64.652 15.676 64.652 16.204C64.652 16.7173 64.8207 17.1133 65.158 17.392C65.51 17.656 66.0673 17.9127 66.83 18.162L68.172 18.602C69.316 18.9833 70.1887 19.5113 70.79 20.186C71.3913 20.8607 71.692 21.66 71.692 22.584C71.692 23.1853 71.5747 23.7353 71.34 24.234C71.1053 24.7327 70.768 25.1727 70.328 25.554C69.888 25.9207 69.3453 26.2067 68.7 26.412C68.0693 26.6173 67.3507 26.72 66.544 26.72C65.752 26.72 64.982 26.6467 64.234 26.5C63.486 26.3387 62.7673 26.0893 62.078 25.752L62.694 23.706C63.3247 24.014 63.9407 24.2487 64.542 24.41C65.1433 24.5713 65.774 24.652 66.434 24.652C67.226 24.652 67.842 24.498 68.282 24.19C68.7367 23.882 68.964 23.4347 68.964 22.848C68.964 22.6427 68.9273 22.4447 68.854 22.254C68.7807 22.0633 68.6487 21.8873 68.458 21.726C68.282 21.55 68.0327 21.3887 67.71 21.242C67.402 21.0807 66.9987 20.9193 66.5 20.758L65.268 20.34C64.256 19.988 63.442 19.526 62.826 18.954C62.2247 18.3673 61.924 17.546 61.924 16.49C61.924 15.2727 62.3493 14.29 63.2 13.542C64.0507 12.794 65.2827 12.42 66.896 12.42ZM75.1398 12.64L76.9218 19.636C76.9658 19.8267 77.0245 20.0907 77.0978 20.428C77.1711 20.7653 77.2445 21.1247 77.3178 21.506C77.3911 21.8727 77.4571 22.2467 77.5158 22.628C77.5891 22.9947 77.6405 23.31 77.6698 23.574H77.7138C77.7578 23.2953 77.8091 22.9727 77.8678 22.606C77.9411 22.2393 78.0145 21.8727 78.0878 21.506C78.1758 21.1247 78.2565 20.7727 78.3298 20.45C78.4031 20.1127 78.4618 19.8413 78.5058 19.636L80.3978 12.64H83.1038L84.9958 19.614C85.0398 19.8047 85.0985 20.0687 85.1718 20.406C85.2598 20.7433 85.3405 21.1027 85.4138 21.484C85.4871 21.8653 85.5605 22.2467 85.6338 22.628C85.7071 22.9947 85.7658 23.31 85.8098 23.574H85.8538C85.8978 23.31 85.9565 22.9947 86.0298 22.628C86.1031 22.2613 86.1765 21.8947 86.2498 21.528C86.3231 21.1467 86.3965 20.7873 86.4698 20.45C86.5431 20.1127 86.6018 19.834 86.6458 19.614L88.3618 12.64H91.0678L87.3498 26.5H84.4898L82.5758 19.218C82.4145 18.6167 82.2678 18.0373 82.1358 17.48C82.0038 16.908 81.8645 16.2993 81.7178 15.654H81.6738C81.5418 16.314 81.4171 16.9153 81.2998 17.458C81.1825 18.0007 81.0431 18.58 80.8818 19.196L79.0338 26.5H76.1958L72.3898 12.64H75.1398ZM95.497 12.64V26.5H92.813V12.64H95.497ZM107.258 12.64V14.752H101.362V18.69H106.774V20.78H101.362V26.5H98.6783V12.64H107.258ZM118.856 12.64V14.796H114.786V26.5H112.102V14.796H108.142V12.64H118.856ZM124.947 12.42C125.768 12.42 126.509 12.5007 127.169 12.662C127.843 12.8087 128.459 13.0213 129.017 13.3L128.401 15.368C127.799 15.0747 127.227 14.8547 126.685 14.708C126.142 14.5613 125.607 14.488 125.079 14.488C124.331 14.488 123.744 14.642 123.319 14.95C122.908 15.258 122.703 15.676 122.703 16.204C122.703 16.7173 122.871 17.1133 123.209 17.392C123.561 17.656 124.118 17.9127 124.881 18.162L126.223 18.602C127.367 18.9833 128.239 19.5113 128.841 20.186C129.442 20.8607 129.743 21.66 129.743 22.584C129.743 23.1853 129.625 23.7353 129.391 24.234C129.156 24.7327 128.819 25.1727 128.379 25.554C127.939 25.9207 127.396 26.2067 126.751 26.412C126.12 26.6173 125.401 26.72 124.595 26.72C123.803 26.72 123.033 26.6467 122.285 26.5C121.537 26.3387 120.818 26.0893 120.129 25.752L120.745 23.706C121.375 24.014 121.991 24.2487 122.593 24.41C123.194 24.5713 123.825 24.652 124.485 24.652C125.277 24.652 125.893 24.498 126.333 24.19C126.787 23.882 127.015 23.4347 127.015 22.848C127.015 22.6427 126.978 22.4447 126.905 22.254C126.831 22.0633 126.699 21.8873 126.509 21.726C126.333 21.55 126.083 21.3887 125.761 21.242C125.453 21.0807 125.049 20.9193 124.551 20.758L123.319 20.34C122.307 19.988 121.493 19.526 120.877 18.954C120.275 18.3673 119.975 17.546 119.975 16.49C119.975 15.2727 120.4 14.29 121.251 13.542C122.101 12.794 123.333 12.42 124.947 12.42ZM132.237 12.64H141.037V14.752H134.921V18.25H140.465V20.34H134.921V24.388H141.103V26.5H132.237V12.64ZM143.495 12.64H145.915L151.195 20.428C151.488 20.868 151.759 21.308 152.009 21.748C152.258 22.1733 152.456 22.5253 152.603 22.804H152.647C152.559 21.792 152.515 20.78 152.515 19.768C152.515 18.7413 152.515 17.722 152.515 16.71V12.64H155.045V26.5H152.625L147.587 19.13C147.249 18.6313 146.927 18.1107 146.619 17.568C146.325 17.0253 146.098 16.5853 145.937 16.248H145.893C145.966 17.3333 146.003 18.3893 146.003 19.416C146.017 20.428 146.025 21.462 146.025 22.518V26.5H143.495V12.64ZM162.984 12.64C164.026 12.64 164.979 12.7793 165.844 13.058C166.71 13.3367 167.45 13.7547 168.066 14.312C168.697 14.8693 169.181 15.566 169.518 16.402C169.87 17.2233 170.046 18.184 170.046 19.284C170.046 20.56 169.841 21.66 169.43 22.584C169.02 23.4933 168.462 24.2413 167.758 24.828C167.054 25.4 166.233 25.8253 165.294 26.104C164.37 26.368 163.38 26.5 162.324 26.5H158.254V12.64H162.984ZM160.938 24.388H162.126C162.772 24.388 163.395 24.3147 163.996 24.168C164.612 24.0067 165.155 23.7353 165.624 23.354C166.094 22.9727 166.468 22.452 166.746 21.792C167.04 21.132 167.186 20.296 167.186 19.284C167.186 17.8173 166.768 16.6953 165.932 15.918C165.111 15.1407 163.996 14.752 162.588 14.752H160.938V24.388Z" fill="#1B1B1B"/>
<defs>
<clipPath id="clip0_153_3115">
<rect width="40" height="53" fill="white" transform="matrix(0 -1 1 0 0 40)"/>
</clipPath>
</defs>
</svg>
