<svg width="19" height="18" viewBox="0 0 19 18" fill="none" xmlns="http://www.w3.org/2000/svg">
<path d="M12.9531 15.891L6.06251 9.00039H12.8125L5.69689 1.88477H4.90939C3.70957 2.64385 2.72171 3.69463 2.03806 4.93897C1.35441 6.18331 0.997277 7.58062 1.00002 9.00039C1.00002 13.6691 4.76876 17.4379 9.43751 17.4379C10.675 17.4379 11.8844 17.1566 12.9531 16.6785V15.891Z" fill="#ED4C5C"/>
<path d="M9.4375 0.5625C8.2 0.5625 6.99063 0.84375 5.92188 1.32187V2.67188L11.8281 8.57812H5.92188V9.47813L12.5594 16.1156H13.9656C16.3281 14.625 17.875 11.9812 17.875 9C17.875 4.33125 14.1062 0.5625 9.4375 0.5625Z" fill="white"/>
<path d="M5.9219 1.32227C5.55627 1.49102 5.21877 1.65977 4.88127 1.88477L11.4625 8.43789H4.71252L12.9531 16.6785C13.3188 16.5098 13.6563 16.341 13.9938 16.116L7.41252 9.56289H14.1625L5.9219 1.32227Z" fill="#428BC1"/>
<path d="M5.95 6.13125C6.03438 5.99062 6.0625 5.79375 6.0625 5.625C6.0625 5.00625 5.55625 4.5 4.9375 4.5C4.31875 4.5 3.8125 5.00625 3.8125 5.625C3.8125 5.82187 3.86875 5.99062 3.925 6.13125C3.39062 5.90625 2.96875 5.625 2.96875 5.625C2.96875 5.625 3.39062 7.3125 4.9375 7.3125C6.5125 7.3125 6.90625 5.625 6.90625 5.625C6.90625 5.625 6.48438 5.90625 5.95 6.13125ZM4.9375 11.1375L5.3875 10.6875L5.55625 11.3063L6.175 11.1375L6.00625 11.7562L6.625 11.925L6.175 12.375L6.625 12.825L6.00625 12.9938L6.175 13.6125L5.55625 13.4437L5.3875 14.0625L4.9375 13.6125L4.4875 14.0625L4.31875 13.4437L3.7 13.6125L3.86875 12.9938L3.25 12.825L3.7 12.375L3.25 11.925L3.86875 11.7562L3.7 11.1375L4.31875 11.3063L4.4875 10.6875L4.9375 11.1375Z" fill="white"/>
</svg>
