<svg width="22" height="22" viewBox="0 0 22 22" fill="none" xmlns="http://www.w3.org/2000/svg">
<path d="M5.84375 5.84375C5.84375 6.75543 6.20591 7.62977 6.85057 8.27443C7.49523 8.91909 8.36957 9.28125 9.28125 9.28125C10.1929 9.28125 11.0673 8.91909 11.7119 8.27443C12.3566 7.62977 12.7188 6.75543 12.7188 5.84375C12.7188 4.93207 12.3566 4.05773 11.7119 3.41307C11.0673 2.76841 10.1929 2.40625 9.28125 2.40625C8.36957 2.40625 7.49523 2.76841 6.85057 3.41307C6.20591 4.05773 5.84375 4.93207 5.84375 5.84375Z" stroke="#696969" stroke-width="1.3"/>
<path d="M16.1562 15.7266C16.1562 17.8624 16.1562 19.5938 9.28125 19.5938C2.40625 19.5938 2.40625 17.8624 2.40625 15.7266C2.40625 13.5908 5.48429 11.8594 9.28125 11.8594C13.0782 11.8594 16.1562 13.5908 16.1562 15.7266Z" stroke="#696969" stroke-width="1.3"/>
<path d="M17.0156 2.40625C17.0156 2.40625 18.7344 3.4375 18.7344 5.84375C18.7344 8.25 17.0156 9.28125 17.0156 9.28125" stroke="#696969" stroke-width="1.3" stroke-linecap="round"/>
<path d="M15.2969 4.125C15.2969 4.125 16.1562 4.64062 16.1562 5.84375C16.1562 7.04688 15.2969 7.5625 15.2969 7.5625" stroke="#696969" stroke-width="1.3" stroke-linecap="round"/>
</svg>
