<svg width="22" height="22" viewBox="0 0 22 22" fill="none" xmlns="http://www.w3.org/2000/svg">
<path d="M3.26563 9.28125C3.26563 6.04034 3.26562 4.41989 4.27244 3.41307C5.27927 2.40625 6.89972 2.40625 10.1406 2.40625H11.8594C15.1003 2.40625 16.7208 2.40625 17.7275 3.41307C18.7344 4.41989 18.7344 6.04034 18.7344 9.28125V12.7188C18.7344 15.9596 18.7344 17.5801 17.7275 18.5869C16.7208 19.5937 15.1003 19.5938 11.8594 19.5938H10.1406C6.89972 19.5938 5.27927 19.5937 4.27244 18.5869C3.26562 17.5801 3.26563 15.9596 3.26563 12.7188V9.28125Z" stroke="#696969" stroke-width="1.3"/>
<path d="M7.5625 9.28125H14.4375" stroke="#696969" stroke-width="1.3" stroke-linecap="round"/>
<path d="M7.5625 12.7188H11.8594" stroke="#696969" stroke-width="1.3" stroke-linecap="round"/>
</svg>
