<svg width="16" height="16" viewBox="0 0 16 16" fill="none" xmlns="http://www.w3.org/2000/svg">
<path d="M14.3409 2.95627H11.3145V2.23569C11.3145 1.36015 10.6047 0.650391 9.72917 0.650391H6.27035C5.39481 0.650391 4.68505 1.36015 4.68505 2.23569V2.95627H1.65858C1.32575 2.95629 1.11773 3.31659 1.28416 3.60482C1.3614 3.73858 1.50413 3.82098 1.65858 3.82098H2.37917V14.3416C2.37917 14.8987 2.83083 15.3504 3.38799 15.3504H12.6115C13.1687 15.3504 13.6203 14.8987 13.6203 14.3416V3.82098H14.3409C14.6738 3.82098 14.8818 3.46068 14.7154 3.17245C14.6381 3.03868 14.4954 2.95628 14.3409 2.95627ZM5.54976 2.23569C5.54976 1.83772 5.87238 1.51509 6.27035 1.51509H9.72917C10.1271 1.51509 10.4498 1.83772 10.4498 2.23569V2.95627H5.54976V2.23569ZM12.7556 14.3416C12.7556 14.4212 12.6911 14.4857 12.6115 14.4857H3.38799C3.3084 14.4857 3.24387 14.4212 3.24387 14.3416V3.82098H12.7556V14.3416ZM6.7027 6.84745V11.4592C6.7027 11.792 6.3424 12.0001 6.05417 11.8336C5.9204 11.7564 5.83799 11.6137 5.83799 11.4592V6.84745C5.83799 6.51462 6.19829 6.30661 6.48652 6.47302C6.62029 6.55025 6.7027 6.69298 6.7027 6.84745ZM10.1615 6.84745V11.4592C10.1615 11.792 9.80123 12.0001 9.51299 11.8336C9.37922 11.7564 9.29682 11.6137 9.29682 11.4592V6.84745C9.29682 6.51462 9.65711 6.30661 9.94535 6.47302C10.0791 6.55025 10.1615 6.69298 10.1615 6.84745Z" fill="#5F5F5F"/>
</svg>
