<svg width="34" height="34" viewBox="0 0 34 34" fill="none" xmlns="http://www.w3.org/2000/svg">
<g clip-path="url(#clip0_2120_26389)">
<path d="M6.14538 20.1032C5.94963 19.9075 5.85173 19.6815 5.85173 19.4256C5.85173 19.1696 5.94963 18.9437 6.14538 18.7479C6.34113 18.5522 6.56705 18.4543 6.82302 18.4543C7.07899 18.4543 7.30492 18.5522 7.50067 18.7479L15.1806 26.4279C15.3764 26.6236 15.4743 26.8496 15.4743 27.1055C15.4743 27.3615 15.3764 27.5874 15.1806 27.7832C14.9849 27.9789 14.759 28.0768 14.503 28.0768C14.247 28.0768 14.0211 27.9789 13.8253 27.7832L6.14538 20.1032ZM13.8253 20.1032C13.6296 19.9075 13.5317 19.6815 13.5317 19.4256C13.5317 19.1696 13.6296 18.9437 13.8253 18.7479L21.1891 11.3842L16.6714 11.3842C16.4004 11.3842 16.1745 11.2938 15.9938 11.1131C15.8131 10.9324 15.7227 10.7066 15.7227 10.4355C15.7227 10.1644 15.8131 9.93856 15.9938 9.75786C16.1745 9.57715 16.4004 9.4868 16.6714 9.4868L23.4931 9.4868C23.6437 9.48682 23.7716 9.50937 23.8771 9.55457C23.9825 9.59976 24.0803 9.66751 24.1707 9.75786C24.2611 9.84821 24.3288 9.94608 24.374 10.0515C24.4192 10.1569 24.4417 10.2849 24.4418 10.4355L24.4418 17.2571C24.4418 17.5282 24.3514 17.7541 24.1707 17.9348C23.99 18.1155 23.7641 18.2058 23.4931 18.2058C23.222 18.2058 22.9961 18.1155 22.8154 17.9348C22.6347 17.7541 22.5444 17.5282 22.5444 17.2571L22.5444 12.7395L15.1806 20.1032C14.9849 20.299 14.759 20.3969 14.503 20.3969C14.247 20.3969 14.0211 20.299 13.8253 20.1032Z" fill="#5C5CCD"/>
</g>
<defs>
<clipPath id="clip0_2120_26389">
<rect width="24" height="24" fill="white" transform="translate(16.9706 0.0292969) rotate(45)"/>
</clipPath>
</defs>
</svg>
