<svg width="18" height="18" viewBox="0 0 18 18" fill="none" xmlns="http://www.w3.org/2000/svg">
<path d="M5.94531 14.7502C5.7896 14.7502 5.6608 14.6993 5.55898 14.5975C5.45717 14.4956 5.40625 14.3668 5.40625 14.2111C5.40625 14.0554 5.45717 13.9266 5.55898 13.8248C5.6608 13.723 5.7896 13.6721 5.94531 13.6721H12.0547C12.2104 13.6721 12.3392 13.723 12.441 13.8248C12.5428 13.9266 12.5937 14.0554 12.5937 14.2111C12.5937 14.3668 12.5428 14.4956 12.441 14.5975C12.3392 14.6993 12.2104 14.7502 12.0547 14.7502H5.94531ZM9 11.6955C8.84428 11.6955 8.71548 11.6446 8.61367 11.5428C8.51186 11.441 8.46094 11.3122 8.46094 11.1564V5.29863L6.66406 7.0955C6.55625 7.20332 6.43047 7.25722 6.28672 7.25722C6.14297 7.25722 6.01719 7.20332 5.90937 7.0955C5.80156 6.98769 5.74766 6.86191 5.74766 6.71816C5.74766 6.57441 5.80156 6.44863 5.90937 6.34082L8.62266 3.62754C8.68256 3.56764 8.74244 3.52571 8.80234 3.50176C8.86225 3.4778 8.92812 3.46582 9 3.46582C9.07187 3.46582 9.13775 3.4778 9.19766 3.50176C9.25756 3.52571 9.31744 3.56764 9.37734 3.62754L12.0906 6.34082C12.1984 6.44863 12.2523 6.57441 12.2523 6.71816C12.2523 6.86191 12.1984 6.98769 12.0906 7.0955C11.9828 7.20332 11.857 7.25722 11.7133 7.25722C11.5695 7.25722 11.4437 7.20332 11.3359 7.0955L9.53906 5.29863V11.1564C9.53906 11.3122 9.48814 11.441 9.38633 11.5428C9.28452 11.6446 9.15572 11.6955 9 11.6955Z" fill="#5F5F5F"/>
</svg>
