<svg width="20" height="20" viewBox="0 0 20 20" fill="none" xmlns="http://www.w3.org/2000/svg">
<path d="M5 5.62533C5 6.06306 5.08622 6.49652 5.25373 6.90094C5.42125 7.30536 5.66678 7.67282 5.97631 7.98235C6.28584 8.29188 6.6533 8.53741 7.05772 8.70492C7.46214 8.87244 7.89559 8.95866 8.33333 8.95866C8.77107 8.95866 9.20453 8.87244 9.60894 8.70492C10.0134 8.53741 10.3808 8.29188 10.6904 7.98235C10.9999 7.67282 11.2454 7.30536 11.4129 6.90094C11.5804 6.49652 11.6667 6.06306 11.6667 5.62533C11.6667 4.74127 11.3155 3.89342 10.6904 3.2683C10.0652 2.64318 9.21739 2.29199 8.33333 2.29199C7.44928 2.29199 6.60143 2.64318 5.97631 3.2683C5.35119 3.89342 5 4.74127 5 5.62533Z" fill="#7F7D83"/>
<path d="M2.5 14.7913C2.5 15.2291 2.65088 15.6625 2.94404 16.067C3.23719 16.4714 3.66687 16.8388 4.20854 17.1484C4.75022 17.4579 5.39328 17.7034 6.10101 17.8709C6.80875 18.0385 7.56729 18.1247 8.33333 18.1247C9.09938 18.1247 9.85792 18.0385 10.5657 17.8709C11.2734 17.7034 11.9164 17.4579 12.4581 17.1484C12.9998 16.8388 13.4295 16.4714 13.7226 16.067C14.0158 15.6625 14.1667 15.2291 14.1667 14.7913C14.1667 14.3536 14.0158 13.9201 13.7226 13.5157C13.4295 13.1113 12.9998 12.7438 12.4581 12.4343C11.9164 12.1248 11.2734 11.8793 10.5657 11.7117C9.85792 11.5442 9.09938 11.458 8.33333 11.458C7.56729 11.458 6.80875 11.5442 6.10101 11.7117C5.39328 11.8793 4.75022 12.1248 4.20854 12.4343C3.66687 12.7438 3.23719 13.1113 2.94404 13.5157C2.65088 13.9201 2.5 14.3536 2.5 14.7913Z" fill="#7F7D83"/>
<path fill-rule="evenodd" clip-rule="evenodd" d="M15.2975 1.97053C15.4752 1.67454 15.8591 1.57856 16.155 1.75615L15.8335 2.29209C16.155 1.75615 16.1547 1.75599 16.155 1.75615L16.1562 1.75685L16.1575 1.75764L16.1606 1.75952L16.1686 1.76445C16.1747 1.76827 16.1824 1.77313 16.1916 1.77906C16.2099 1.79092 16.2342 1.80707 16.2635 1.82759C16.3221 1.86861 16.4012 1.92736 16.494 2.00466C16.6791 2.1589 16.9212 2.38931 17.1622 2.70269C17.6479 3.33414 18.1252 4.29821 18.1252 5.62542C18.1252 6.95264 17.6479 7.91671 17.1622 8.54816C16.9212 8.86149 16.6791 9.09191 16.494 9.24616C16.4012 9.32349 16.3221 9.38224 16.2635 9.42324C16.2342 9.44374 16.2099 9.45991 16.1916 9.47174C16.1824 9.47774 16.1747 9.48258 16.1686 9.48641L16.1606 9.49133L16.1575 9.49316L16.1562 9.49399C16.1559 9.49416 16.155 9.49466 15.8335 8.95874L16.155 9.49466C15.8591 9.67224 15.4752 9.57633 15.2975 9.28033C15.1207 8.98558 15.2151 8.60366 15.5082 8.42508L15.5128 8.42216C15.5189 8.41816 15.5304 8.41058 15.5467 8.39924C15.5792 8.37641 15.6302 8.33883 15.6937 8.28591C15.8212 8.17973 15.9958 8.01431 16.1714 7.78602C16.519 7.33413 16.8752 6.63154 16.8752 5.62542C16.8752 4.6193 16.519 3.91671 16.1714 3.46483C15.9958 3.23653 15.8212 3.07111 15.6937 2.96494C15.6302 2.91202 15.5792 2.87442 15.5467 2.85163C15.5304 2.84026 15.5189 2.83264 15.5128 2.82871L15.5082 2.82577C15.2151 2.6472 15.1207 2.26527 15.2975 1.97053Z" fill="#7F7D83"/>
<path fill-rule="evenodd" clip-rule="evenodd" d="M13.6077 3.67863C13.7622 3.3699 14.1376 3.24476 14.4463 3.39913L14.1668 3.95814C14.4463 3.39913 14.446 3.39896 14.4463 3.39913L14.4477 3.39981L14.4491 3.40053L14.4522 3.40211L14.4593 3.40582L14.4773 3.41549C14.4909 3.42296 14.5076 3.4325 14.527 3.44425C14.5656 3.46771 14.6153 3.5002 14.672 3.54278C14.7853 3.62774 14.9294 3.75463 15.0715 3.93229C15.3621 4.29554 15.6252 4.84798 15.6252 5.62481C15.6252 6.40163 15.3621 6.95408 15.0715 7.31733C14.9294 7.49499 14.7853 7.62188 14.672 7.70684C14.6153 7.74943 14.5656 7.78191 14.527 7.80538C14.5076 7.81713 14.4909 7.82667 14.4773 7.83413L14.4593 7.8438L14.4522 7.84752L14.4491 7.84909L14.4477 7.84982C14.4473 7.84998 14.4463 7.85049 14.172 7.30193L14.4463 7.85049C14.1376 8.00487 13.7622 7.87973 13.6077 7.57098C13.4553 7.26609 13.5755 6.89617 13.8758 6.73833C13.8765 6.73797 13.8772 6.73749 13.8782 6.73689C13.8852 6.73268 13.9007 6.72285 13.922 6.70684C13.965 6.67462 14.0293 6.61922 14.0954 6.53646C14.2215 6.37888 14.3752 6.09798 14.3752 5.62481C14.3752 5.15163 14.2215 4.87075 14.0954 4.71316C14.0293 4.63041 13.965 4.57501 13.922 4.54278C13.9007 4.52677 13.8852 4.51693 13.8782 4.51273C13.8772 4.51213 13.8765 4.51165 13.8758 4.51129C13.5755 4.35346 13.4553 3.98353 13.6077 3.67863Z" fill="#7F7D83"/>
</svg>
