<svg width="52" height="52" viewBox="0 0 52 52" fill="none" xmlns="http://www.w3.org/2000/svg">
<path d="M26 50.1431C41.4514 50.1431 50.1429 41.4517 50.1429 26.0003C50.1429 10.5489 41.4514 1.85742 26 1.85742C10.5486 1.85742 1.85715 10.5489 1.85715 26.0003C1.85715 41.4517 10.5486 50.1431 26 50.1431Z" fill="#F5F8FF"/>
<path d="M39.7585 46.975C36.0726 49.0587 31.4581 50.1433 26 50.1433C20.5417 50.1433 15.927 49.0587 12.241 46.9746V44.7C13.0078 41.8121 14.6664 39.2314 16.9907 37.3316C19.5332 35.2534 22.716 34.1182 25.9998 34.1182C29.2836 34.1182 32.4663 35.2534 35.0089 37.3316C37.333 39.2314 38.9918 41.8121 39.7585 44.7V46.975Z" fill="#D9E3FF"/>
<path d="M39.7585 44.7C38.9918 41.8121 37.333 39.2314 35.0089 37.3316C32.4663 35.2534 29.2836 34.1182 25.9998 34.1182C22.716 34.1182 19.5332 35.2534 16.9907 37.3316C14.6664 39.2314 13.0078 41.8121 12.241 44.7" stroke="#8286E3" stroke-width="2" stroke-linecap="round" stroke-linejoin="round"/>
<path d="M25.9973 28.1543C31.1973 28.1543 34.1223 25.2293 34.1223 20.0293C34.1223 14.8293 31.1973 11.9043 25.9973 11.9043C20.7973 11.9043 17.8723 14.8293 17.8723 20.0293C17.8723 25.2293 20.7973 28.1543 25.9973 28.1543Z" fill="white"/>
<path d="M25.9973 28.1543C31.1973 28.1543 34.1223 25.2293 34.1223 20.0293C34.1223 14.8293 31.1973 11.9043 25.9973 11.9043C20.7973 11.9043 17.8723 14.8293 17.8723 20.0293C17.8723 25.2293 20.7973 28.1543 25.9973 28.1543Z" stroke="#8286E3" stroke-width="2" stroke-linecap="round" stroke-linejoin="round"/>
</svg>
