<svg width="14" height="16" viewBox="0 0 14 16" fill="none" xmlns="http://www.w3.org/2000/svg">
<path d="M13.3409 2.95627H10.3145V2.23569C10.3145 1.36015 9.6047 0.650391 8.72917 0.650391H5.27035C4.39481 0.650391 3.68505 1.36015 3.68505 2.23569V2.95627H0.658584C0.325754 2.95629 0.117735 3.31659 0.284164 3.60482C0.361397 3.73858 0.504125 3.82098 0.658584 3.82098H1.37917V14.3416C1.37917 14.8987 1.83083 15.3504 2.38799 15.3504H11.6115C12.1687 15.3504 12.6203 14.8987 12.6203 14.3416V3.82098H13.3409C13.6738 3.82098 13.8818 3.46068 13.7154 3.17245C13.6381 3.03868 13.4954 2.95628 13.3409 2.95627ZM4.54976 2.23569C4.54976 1.83772 4.87238 1.51509 5.27035 1.51509H8.72917C9.12714 1.51509 9.44976 1.83772 9.44976 2.23569V2.95627H4.54976V2.23569ZM11.7556 14.3416C11.7556 14.4212 11.6911 14.4857 11.6115 14.4857H2.38799C2.3084 14.4857 2.24387 14.4212 2.24387 14.3416V3.82098H11.7556V14.3416ZM5.7027 6.84745V11.4592C5.7027 11.792 5.3424 12.0001 5.05417 11.8336C4.9204 11.7564 4.83799 11.6137 4.83799 11.4592V6.84745C4.83799 6.51462 5.19829 6.30661 5.48652 6.47302C5.62029 6.55025 5.7027 6.69298 5.7027 6.84745ZM9.16152 6.84745V11.4592C9.16152 11.792 8.80123 12.0001 8.51299 11.8336C8.37922 11.7564 8.29682 11.6137 8.29682 11.4592V6.84745C8.29682 6.51462 8.65711 6.30661 8.94535 6.47302C9.07912 6.55025 9.16152 6.69298 9.16152 6.84745Z" fill="#5F5F5F"/>
</svg>
