<svg width="118" height="112" viewBox="0 0 118 112" fill="none" xmlns="http://www.w3.org/2000/svg">
<path opacity="0.3" fill-rule="evenodd" clip-rule="evenodd" d="M132.49 -85.6785C126.967 -95.2444 114.735 -98.5219 105.169 -92.999L75.6281 -75.9434C66.0622 -70.4205 62.7847 -58.1887 68.3076 -48.6229L69.7303 -46.1588C75.2531 -36.5929 71.9756 -24.3611 62.4097 -18.8383L42.3958 -7.28319C32.8299 -1.76035 29.5524 10.4715 35.0753 20.0373L37.0767 23.5039C42.5995 33.0697 39.322 45.3015 29.7562 50.8244L10.7448 61.8006C1.17897 67.3234 -2.09853 79.5552 3.42432 89.1211L10.637 101.614C16.1599 111.18 28.3917 114.457 37.9576 108.934L66.7685 92.3004C72.307 89.1027 79.3891 91.0004 82.5868 96.5389C85.7845 102.077 92.8666 103.975 98.4052 100.777L112.194 92.8163C120.364 88.0997 123.163 77.6535 118.446 69.4841C113.73 61.3147 103.283 58.5157 95.114 63.2323L93.609 64.1012C85.7167 68.6578 75.6249 65.9537 71.0683 58.0614C66.5117 50.1692 69.2158 40.0774 77.1081 35.5208L86.6132 30.033C96.179 24.5101 108.411 27.7877 113.934 37.3535L115.936 40.8211C121.459 50.387 133.69 53.6645 143.256 48.1416L172.797 31.086C182.363 25.5631 185.641 13.3313 180.118 3.76546L172.905 -8.72734C167.382 -18.2932 155.151 -21.5707 145.585 -16.0478L125.299 -4.33618C117.545 0.140629 107.63 -2.51611 103.154 -10.2702C98.6768 -18.0242 101.333 -27.9393 109.088 -32.4161L132.382 -45.8652C141.948 -51.388 145.225 -63.6199 139.703 -73.1857L132.49 -85.6785Z" fill="#B3B6CD"/>
</svg>
