<svg width="20" height="20" viewBox="0 0 20 20" fill="none" xmlns="http://www.w3.org/2000/svg">
<path d="M2.1875 10C2.1875 12.072 3.0106 14.0591 4.47573 15.5243C5.94086 16.9894 7.928 17.8125 10 17.8125C12.072 17.8125 14.0591 16.9894 15.5243 15.5243C16.9894 14.0591 17.8125 12.072 17.8125 10C17.8125 7.928 16.9894 5.94086 15.5243 4.47573C14.0591 3.0106 12.072 2.1875 10 2.1875C7.928 2.1875 5.94086 3.0106 4.47573 4.47573C3.0106 5.94086 2.1875 7.928 2.1875 10Z" stroke="black"/>
<path d="M8.53516 7.55859C8.53516 6.74959 9.19102 6.09375 10 6.09375C10.809 6.09375 11.4648 6.74959 11.4648 7.55859C11.4648 8.09566 11.1758 8.56523 10.7448 8.82023C10.3734 9.03992 10 9.3732 10 9.80469V10.7812" stroke="black" stroke-linecap="round"/>
<path d="M9.21875 13.125C9.21875 13.3322 9.30106 13.5309 9.44757 13.6774C9.59409 13.8239 9.7928 13.9062 10 13.9062C10.2072 13.9062 10.4059 13.8239 10.5524 13.6774C10.6989 13.5309 10.7812 13.3322 10.7812 13.125C10.7812 12.9178 10.6989 12.7191 10.5524 12.5726C10.4059 12.4261 10.2072 12.3438 10 12.3438C9.7928 12.3438 9.59409 12.4261 9.44757 12.5726C9.30106 12.7191 9.21875 12.9178 9.21875 13.125Z" fill="black"/>
</svg>
