<svg width="16" height="16" viewBox="0 0 16 16" fill="none" xmlns="http://www.w3.org/2000/svg">
<path fill-rule="evenodd" clip-rule="evenodd" d="M14.6666 8.00004C14.6666 11.6819 11.6819 14.6667 7.99998 14.6667C4.31808 14.6667 1.33331 11.6819 1.33331 8.00004C1.33331 4.31814 4.31808 1.33337 7.99998 1.33337C11.6819 1.33337 14.6666 4.31814 14.6666 8.00004ZM8.66665 5.60006C8.66665 5.23187 8.36817 4.93339 7.99998 4.93339C7.63179 4.93339 7.33331 5.23187 7.33331 5.60006V8.00006C7.33331 8.36825 7.63179 8.66672 7.99998 8.66672C8.36817 8.66672 8.66665 8.36825 8.66665 8.00006V5.60006ZM7.99998 9.73339C7.63179 9.73339 7.33331 10.0319 7.33331 10.4001C7.33331 10.7682 7.63179 11.0667 7.99998 11.0667H8.00598C8.37417 11.0667 8.67265 10.7682 8.67265 10.4001C8.67265 10.0319 8.37417 9.73339 8.00598 9.73339H7.99998Z" fill="#3333C1"/>
</svg>
