<svg width="33" height="33" viewBox="0 0 33 33" fill="none" xmlns="http://www.w3.org/2000/svg">
<path d="M3.60938 21.6562C3.60938 18.0103 3.60938 16.1873 4.74205 15.0546C5.87472 13.9219 7.69773 13.9219 11.3438 13.9219H21.6562C25.3022 13.9219 27.1252 13.9219 28.2579 15.0546C29.3906 16.1873 29.3906 18.0103 29.3906 21.6562C29.3906 25.3022 29.3906 27.1252 28.2579 28.2579C27.1252 29.3906 25.3022 29.3906 21.6562 29.3906H11.3438C7.69773 29.3906 5.87472 29.3906 4.74205 28.2579C3.60938 27.1252 3.60938 25.3022 3.60938 21.6562Z" stroke="#3333C1" stroke-width="2"/>
<path d="M8.76562 13.9219V11.3438C8.76562 7.07217 12.2284 3.60938 16.5 3.60938C20.7716 3.60938 24.2344 7.07217 24.2344 11.3438V13.9219" stroke="#3333C1" stroke-width="2" stroke-linecap="round"/>
<path d="M11.3438 21.6562H11.3554M16.4884 21.6562H16.5M21.6446 21.6562H21.6562" stroke="#3333C1" stroke-width="2" stroke-linecap="round" stroke-linejoin="round"/>
</svg>
