<svg width="1184" height="107" viewBox="0 0 1184 107" fill="none" xmlns="http://www.w3.org/2000/svg">
<g clip-path="url(#clip0_2321_52865)">
<path d="M-373.733 189.86L-268.293 236.296L-288.366 161.768L-182.926 208.204L-202.999 133.676L-97.559 180.112L-117.633 105.584L-12.1922 152.02L-32.2299 77.4797L73.2105 123.916L53.137 49.3875L158.577 95.8233L138.504 21.2952L243.98 67.7193L223.907 -6.80877L329.347 39.6271L309.274 -34.901L414.75 11.5231L394.676 -63.005L500.117 -16.5691L480.079 -91.109L585.519 -44.6731L565.446 -119.201L670.886 -72.7653L650.813 -147.293L756.253 -100.858L736.18 -175.386L841.656 -128.962L821.582 -203.49L927.023 -157.054L906.985 -231.594L1012.43 -185.158L992.388 -259.698L1097.86 -213.274L1077.79 -287.802L1183.23 -241.366L1163.19 -315.906L1268.67 -269.482L1248.63 -344.021L1354.11 -297.597" stroke="#BBE5B1" stroke-opacity="0.17" stroke-miterlimit="10"/>
<path d="M-549.647 20.3213L-444.207 66.7572L-464.281 -7.77093L-358.84 38.6649L-378.914 -35.8632L-273.473 10.5727L-293.547 -63.9554L-188.106 -17.5195L-208.144 -92.0594L-102.704 -45.6235L-122.777 -120.152L-17.3367 -73.7157L-37.4103 -148.244L68.066 -101.82L47.9924 -176.348L153.433 -129.912L133.359 -204.44L238.836 -158.016L218.762 -232.544L324.203 -186.108L304.165 -260.648L409.605 -214.212L389.532 -288.74L494.972 -242.304L474.898 -316.832L580.339 -270.397L560.265 -344.925L665.742 -298.501L645.668 -373.029L751.108 -326.593L731.071 -401.133L836.511 -354.697L816.473 -429.237L921.95 -382.813L901.876 -457.341L1007.32 -410.905L987.279 -485.445L1092.76 -439.021L1072.72 -513.56L1178.19 -467.136" stroke="#BBE5B1" stroke-opacity="0.17" stroke-miterlimit="10"/>
<path d="M-197.819 359.396L-92.3785 405.832L-112.452 331.304L-7.01161 377.74L-27.0852 303.212L78.3553 349.648L58.2817 275.12L163.722 321.556L143.684 247.016L249.125 293.452L229.051 218.924L334.492 265.359L314.418 190.831L419.895 237.255L399.821 162.727L505.261 209.163L485.188 134.635L590.664 181.059L570.591 106.531L676.031 152.967L655.993 78.4271L761.434 124.863L741.36 50.3349L846.8 96.7708L826.727 22.2427L932.167 68.6786L912.094 -5.84951L1017.57 40.5746L997.497 -33.9535L1102.94 12.4824L1082.9 -62.0575L1188.34 -15.6216L1168.3 -90.1615L1273.78 -43.7374L1253.7 -118.266L1359.15 -71.8297L1339.11 -146.37L1444.58 -99.9454L1424.55 -174.485L1530.02 -128.061" stroke="#BBE5B1" stroke-opacity="0.17" stroke-miterlimit="10"/>
<path d="M69.9445 617.453L175.385 663.889L155.311 589.361L260.752 635.797L240.678 561.269L346.119 607.705L326.045 533.176L431.486 579.612L411.448 505.072L516.888 551.508L496.815 476.98L602.255 523.416L582.182 448.888L687.658 495.312L667.584 420.784L773.025 467.22L752.951 392.692L858.427 439.116L838.354 364.588L943.794 411.024L923.757 336.484L1029.2 382.92L1009.12 308.392L1114.56 354.827L1094.49 280.299L1199.93 326.735L1179.86 252.207L1285.33 298.631L1265.26 224.103L1370.7 270.539L1350.66 195.999L1456.1 242.435L1436.07 167.895L1541.54 214.319L1521.47 139.791L1626.91 186.227L1606.87 111.687L1712.35 158.111L1692.31 83.5713L1797.79 129.995" stroke="#BBE5B1" stroke-opacity="0.17" stroke-miterlimit="10"/>
<path d="M-289.668 270.879L-184.227 317.315L-204.301 242.787L-98.8605 289.223L-118.934 214.694L-13.4936 261.13L-33.5672 186.602L71.8733 233.038L51.8355 158.498L157.276 204.934L137.202 130.406L242.643 176.842L222.569 102.314L328.046 148.738L307.972 74.2098L413.413 120.646L393.339 46.1176L498.815 92.5417L478.742 18.0136L584.182 64.4494L564.144 -10.0904L669.585 36.3454L649.511 -38.1827L754.952 8.25324L734.878 -66.2749L840.318 -19.839L820.245 -94.3671L925.721 -47.943L905.648 -122.471L1011.09 -76.0352L991.05 -150.575L1096.49 -104.139L1076.45 -178.679L1181.93 -132.255L1161.86 -206.783L1267.3 -160.347L1247.26 -234.887L1352.73 -188.463L1332.7 -263.003L1438.17 -216.579" stroke="#BBE5B1" stroke-opacity="0.17" stroke-miterlimit="10"/>
<path d="M-21.9047 528.933L83.5358 575.368L63.4622 500.84L168.903 547.276L148.829 472.748L254.27 519.184L234.196 444.656L339.636 491.092L319.599 416.552L425.039 462.988L404.966 388.46L510.406 434.896L490.333 360.368L595.809 406.792L575.735 332.263L681.176 378.699L661.102 304.171L766.578 350.595L746.505 276.067L851.945 322.503L831.908 247.963L937.348 294.399L917.274 219.871L1022.71 266.307L1002.64 191.779L1108.08 238.215L1088.01 163.687L1193.48 210.111L1173.41 135.583L1278.85 182.019L1258.81 107.479L1364.25 153.914L1344.22 79.3746L1449.69 125.799L1429.62 51.2706L1535.06 97.7065L1515.02 23.1666L1620.5 69.5907L1600.46 -4.94917L1705.94 41.4749" stroke="#BBE5B1" stroke-opacity="0.17" stroke-miterlimit="10"/>
<path d="M-465.582 101.34L-360.142 147.776L-380.215 73.2476L-274.775 119.683L-294.848 45.1554L-189.408 91.5913L-209.481 17.0632L-104.041 63.4991L-124.079 -11.0408L-18.6383 35.3951L-38.7119 -39.133L66.7286 7.30282L46.655 -67.2253L152.131 -20.8012L132.058 -95.3293L237.498 -48.8934L217.425 -123.421L322.901 -76.9974L302.827 -151.526L408.268 -105.09L388.23 -179.63L493.67 -133.194L473.597 -207.722L579.037 -161.286L558.964 -235.814L664.404 -189.378L644.331 -263.906L749.807 -217.482L729.733 -292.01L835.174 -245.574L815.136 -320.114L920.577 -273.678L900.539 -348.218L1006.02 -301.794L985.941 -376.322L1091.38 -329.886L1071.34 -404.426L1176.82 -358.002L1156.78 -432.542L1262.26 -386.118" stroke="#BBE5B1" stroke-opacity="0.17" stroke-miterlimit="10"/>
<path d="M-113.754 440.414L-8.31332 486.85L-28.3869 412.322L77.0536 458.758L56.98 384.23L162.42 430.665L142.347 356.137L247.787 402.573L227.75 328.033L333.19 374.469L313.116 299.941L418.557 346.377L398.483 271.849L503.96 318.273L483.886 243.745L589.327 290.181L569.253 215.653L674.729 262.077L654.656 187.549L760.096 233.985L740.058 159.445L845.499 205.881L825.425 131.353L930.866 177.788L910.792 103.26L1016.23 149.696L996.159 75.1681L1101.64 121.592L1081.56 47.0641L1187 93.4999L1166.96 18.96L1272.4 65.3959L1252.37 -9.14393L1357.84 37.2801L1337.77 -37.2479L1443.21 9.18791L1423.17 -65.352L1528.65 -18.9279L1508.61 -93.4677L1614.09 -47.0437" stroke="#BBE5B1" stroke-opacity="0.17" stroke-miterlimit="10"/>
<path d="M-331.701 230.369L-226.26 276.805L-246.334 202.277L-140.893 248.713L-160.967 174.185L-55.5263 220.621L-75.5999 146.092L29.8406 192.528L9.8028 117.988L115.243 164.424L95.1697 89.8963L200.61 136.332L180.537 61.804L286.013 108.228L265.939 33.7L371.38 80.1359L351.306 5.6078L456.782 52.0319L436.709 -22.4962L542.149 23.9397L522.112 -50.6002L627.552 -4.16433L607.478 -78.6924L712.919 -32.2565L692.845 -106.785L798.286 -60.3487L778.212 -134.877L883.688 -88.4528L863.615 -162.981L969.055 -116.545L949.018 -191.085L1054.46 -144.649L1034.42 -219.189L1139.9 -172.765L1119.82 -247.293L1225.26 -200.857L1205.23 -275.397L1310.7 -228.973L1290.66 -303.513L1396.14 -257.089" stroke="#BBE5B1" stroke-opacity="0.17" stroke-miterlimit="10"/>
<path d="M-507.615 60.8311L-402.175 107.267L-422.248 32.7388L-316.808 79.1747L-336.881 4.64661L-231.441 51.0825L-251.514 -23.4456L-146.074 22.9903L-166.112 -51.5496L-60.6712 -5.11373L-80.7447 -79.6418L24.6958 -33.206L4.62219 -107.734L110.098 -61.31L90.0249 -135.838L195.465 -89.4022L175.392 -163.93L280.868 -117.506L260.795 -192.034L366.235 -145.598L346.197 -220.138L451.638 -173.702L431.564 -248.231L537.004 -201.795L516.931 -276.323L622.371 -229.887L602.298 -304.415L707.774 -257.991L687.701 -332.519L793.141 -286.083L773.103 -360.623L878.544 -314.187L858.506 -388.727L963.982 -342.303L943.909 -416.831L1049.35 -370.395L1029.31 -444.935L1134.79 -398.511L1114.75 -473.051L1220.23 -426.627" stroke="#BBE5B1" stroke-opacity="0.17" stroke-miterlimit="10"/>
<path d="M-155.786 399.905L-50.3458 446.341L-70.4194 371.813L35.0211 418.249L14.9475 343.721L120.388 390.157L100.314 315.629L205.755 362.064L185.717 287.525L291.158 333.96L271.084 259.432L376.525 305.868L356.451 231.34L461.927 277.764L441.854 203.236L547.294 249.672L527.221 175.144L632.697 221.568L612.623 147.04L718.064 193.476L698.026 118.936L803.466 165.372L783.393 90.8437L888.833 137.28L868.76 62.7515L974.2 109.187L954.127 34.6593L1059.6 81.0834L1039.53 6.55527L1144.97 52.9912L1124.93 -21.5487L1230.37 24.8871L1210.33 -49.6527L1315.81 -3.22866L1295.74 -77.7567L1401.18 -31.3209L1381.14 -105.861L1486.62 -59.4366L1466.58 -133.977L1572.05 -87.5525" stroke="#BBE5B1" stroke-opacity="0.17" stroke-miterlimit="10"/>
<path d="M-599.464 -27.6885L-494.023 18.7474L-514.097 -55.7807L-408.657 -9.34483L-428.73 -83.8729L-323.29 -37.437L-343.363 -111.965L-237.923 -65.5293L-257.961 -140.069L-152.52 -93.6333L-172.594 -168.161L-67.1531 -121.725L-87.2267 -196.254L18.2496 -149.83L-1.82397 -224.358L103.616 -177.922L83.5429 -252.45L189.019 -206.026L168.946 -280.554L274.386 -234.118L254.348 -308.658L359.789 -262.222L339.715 -336.75L445.156 -290.314L425.082 -364.842L530.522 -318.406L510.449 -392.934L615.925 -346.51L595.852 -421.038L701.292 -374.603L681.254 -449.142L786.695 -402.707L766.657 -477.246L872.133 -430.822L852.06 -505.35L957.5 -458.915L937.462 -533.454L1042.94 -487.03L1022.9 -561.57L1128.38 -515.146" stroke="#BBE5B1" stroke-opacity="0.17" stroke-miterlimit="10"/>
<path d="M-247.635 311.388L-142.195 357.824L-162.268 283.295L-56.8279 329.731L-76.9015 255.203L28.539 301.639L8.46541 227.111L113.906 273.547L93.8681 199.007L199.309 245.443L179.235 170.915L284.676 217.351L264.602 142.823L370.078 189.247L350.005 114.719L455.445 161.154L435.372 86.6264L540.848 133.05L520.774 58.5223L626.215 104.958L606.177 30.4184L711.617 76.8542L691.544 2.32613L796.984 48.762L776.911 -25.7661L882.351 20.6698L862.278 -53.8583L967.754 -7.4342L947.68 -81.9623L1053.12 -35.5264L1033.08 -110.066L1138.52 -63.6304L1118.49 -138.17L1223.96 -91.7462L1203.89 -166.274L1309.33 -119.838L1289.29 -194.378L1394.77 -147.954L1374.73 -222.494L1480.21 -176.07" stroke="#BBE5B1" stroke-opacity="0.17" stroke-miterlimit="10"/>
<path d="M20.1282 569.441L125.569 615.877L105.495 541.349L210.936 587.785L190.862 513.257L296.302 559.693L276.229 485.165L381.669 531.601L361.632 457.061L467.072 503.497L446.998 428.969L552.439 475.404L532.365 400.876L637.842 447.3L617.768 372.772L723.209 419.208L703.135 344.68L808.611 391.104L788.538 316.576L893.978 363.012L873.94 288.472L979.381 334.908L959.307 260.38L1064.75 306.816L1044.67 232.288L1150.11 278.724L1130.04 204.195L1235.52 250.62L1215.44 176.091L1320.88 222.527L1300.85 147.987L1406.29 194.423L1386.25 119.883L1491.73 166.307L1471.65 91.7794L1577.09 138.215L1557.05 63.6754L1662.53 110.099L1642.49 35.5596L1747.97 81.9837" stroke="#BBE5B1" stroke-opacity="0.17" stroke-miterlimit="10"/>
<path d="M-423.55 141.849L-318.109 188.285L-338.183 113.756L-232.742 160.192L-252.816 85.6642L-147.375 132.1L-167.449 57.572L-62.0086 104.008L-82.0463 29.468L23.3941 75.9038L3.32059 1.37575L108.761 47.8116L88.6875 -26.7165L194.164 19.7076L174.09 -54.8205L279.531 -8.38462L259.457 -82.9127L364.933 -36.4886L344.86 -111.017L450.3 -64.5808L430.262 -139.121L535.703 -92.6848L515.629 -167.213L621.07 -120.777L600.996 -195.305L706.437 -148.869L686.363 -223.397L791.839 -176.973L771.766 -251.501L877.206 -205.065L857.169 -279.605L962.609 -233.169L942.571 -307.709L1048.05 -261.285L1027.97 -335.813L1133.41 -289.378L1113.38 -363.917L1218.85 -317.493L1198.82 -392.033L1304.29 -345.609" stroke="#BBE5B1" stroke-opacity="0.17" stroke-miterlimit="10"/>
<path d="M-71.7211 480.923L33.7194 527.359L13.6458 452.831L119.086 499.267L99.0127 424.738L204.453 471.174L184.38 396.646L289.82 443.082L269.782 368.542L375.223 414.978L355.149 340.45L460.59 386.886L440.516 312.358L545.992 358.782L525.919 284.254L631.359 330.69L611.286 256.162L716.762 302.586L696.688 228.058L802.129 274.493L782.091 199.954L887.532 246.389L867.458 171.861L972.898 218.297L952.825 143.769L1058.27 190.205L1038.19 115.677L1143.67 162.101L1123.59 87.5728L1229.03 134.009L1209 59.4688L1314.44 105.905L1294.4 31.3649L1399.88 77.7889L1379.8 3.26085L1485.24 49.6967L1465.21 -24.8432L1570.68 21.5809L1550.64 -52.9589L1656.12 -6.53487" stroke="#BBE5B1" stroke-opacity="0.17" stroke-miterlimit="10"/>
</g>
<defs>
<clipPath id="clip0_2321_52865">
<rect width="1330" height="749" fill="white" transform="translate(-73 -321)"/>
</clipPath>
</defs>
</svg>
