<svg width="131" height="72" viewBox="0 0 131 72" fill="none" xmlns="http://www.w3.org/2000/svg">
<path opacity="0.3" fill-rule="evenodd" clip-rule="evenodd" d="M9.49026 -17.0921C0.935194 -12.3926 -2.19038 -1.64763 2.5091 6.90744L10.4752 21.4091C14.1747 28.1439 22.6335 30.6044 29.3683 26.9049C36.1031 23.2053 44.5618 25.6658 48.2614 32.4006L54.4174 43.6072C58.2168 50.5238 66.9039 53.0508 73.8205 49.2514C80.7371 45.4519 89.4241 47.9789 93.2236 54.8955L97.2067 62.1464C101.906 70.7015 112.651 73.827 121.206 69.1276C129.761 64.4281 132.887 53.6831 128.187 45.1281L120.04 30.2965C118.04 26.656 119.37 22.0836 123.011 20.0838C126.651 18.084 127.981 13.5116 125.982 9.87106L121.003 0.807697C118.053 -4.56198 111.309 -6.52377 105.939 -3.5741C100.57 -0.624423 98.6079 6.11973 101.558 11.4894L102.101 12.479C104.951 17.6665 103.056 24.1818 97.8681 27.0313C92.6806 29.8809 86.1653 27.9857 83.3157 22.7983L80.5089 17.6886C76.7094 10.7718 79.2364 2.08461 86.1531 -1.7149C93.0698 -5.5144 95.5968 -14.2016 91.7973 -21.1183L84.0122 -35.2906C79.3127 -43.8457 68.5678 -46.9712 60.0127 -42.2718C51.4576 -37.5723 48.3321 -26.8273 53.0316 -18.2723L58.1015 -9.04271C60.9011 -3.94626 59.0392 2.45474 53.9427 5.25433C48.8463 8.05392 42.4453 6.19195 39.6457 1.0955L33.4897 -10.1109C28.7903 -18.666 18.0453 -21.7915 9.49026 -17.0921Z" fill="#B3B6CD"/>
</svg>
