<svg width="33" height="33" viewBox="0 0 33 33" fill="none" xmlns="http://www.w3.org/2000/svg">
<path d="M16.5 22.9453V13.9219M16.5 13.9219L20.3672 17.7891M16.5 13.9219L12.6328 17.7891" stroke="#3333C1" stroke-width="2" stroke-linecap="round" stroke-linejoin="round"/>
<path d="M21.6563 10.0547H11.3438" stroke="#3333C1" stroke-width="2" stroke-linecap="round"/>
<path d="M3.60938 16.5C3.60938 10.4233 3.60937 7.38495 5.49717 5.49717C7.38495 3.60937 10.4233 3.60938 16.5 3.60938C22.5766 3.60938 25.6151 3.60937 27.5028 5.49717C29.3906 7.38495 29.3906 10.4233 29.3906 16.5C29.3906 22.5766 29.3906 25.6151 27.5028 27.5028C25.6151 29.3906 22.5766 29.3906 16.5 29.3906C10.4233 29.3906 7.38495 29.3906 5.49717 27.5028C3.60937 25.6151 3.60938 22.5766 3.60938 16.5Z" stroke="#3333C1" stroke-width="2"/>
</svg>
